<svg width="163" height="28" viewBox="0 0 163 28" fill="none" xmlns="http://www.w3.org/2000/svg">
<path d="M5.10022 13.6681H16.5242V18.0881H5.10022V13.6681ZM5.50822 26.7581H0.000222802V2.95806H17.9862V7.37805H5.50822V26.7581ZM28.6274 27.0301C27.1088 27.0301 25.7488 26.7354 24.5474 26.1461C23.3688 25.5567 22.4508 24.6614 21.7934 23.4601C21.1361 22.2361 20.8074 20.6834 20.8074 18.8021V8.46606H26.1114V18.0201C26.1114 19.5387 26.4288 20.6607 27.0634 21.3861C27.7208 22.0887 28.6388 22.4401 29.8174 22.4401C30.6334 22.4401 31.3588 22.2701 31.9934 21.9301C32.6281 21.5674 33.1268 21.0234 33.4894 20.2981C33.8521 19.5501 34.0334 18.6207 34.0334 17.5101V8.46606H39.3374V26.7581H34.3054V21.7261L35.2234 23.1881C34.6114 24.4574 33.7048 25.4207 32.5034 26.0781C31.3248 26.7127 30.0328 27.0301 28.6274 27.0301ZM44.2512 26.7581V8.46606H49.3172V13.6341L48.6032 12.1381C49.1472 10.8461 50.0199 9.87139 51.2212 9.21406C52.4226 8.53406 53.8846 8.19406 55.6072 8.19406V13.0901C55.3806 13.0674 55.1766 13.0561 54.9952 13.0561C54.8139 13.0334 54.6212 13.0221 54.4172 13.0221C52.9666 13.0221 51.7879 13.4414 50.8812 14.2801C49.9972 15.0961 49.5552 16.3767 49.5552 18.1221V26.7581H44.2512ZM69.9122 8.19406C71.3629 8.19406 72.6549 8.48872 73.7882 9.07806C74.9442 9.64472 75.8509 10.5287 76.5082 11.7301C77.1655 12.9087 77.4942 14.4274 77.4942 16.2861V26.7581H72.1902V17.1021C72.1902 15.6287 71.8615 14.5407 71.2042 13.8381C70.5695 13.1354 69.6629 12.7841 68.4842 12.7841C67.6455 12.7841 66.8862 12.9654 66.2062 13.3281C65.5489 13.6681 65.0275 14.2007 64.6422 14.9261C64.2795 15.6514 64.0982 16.5807 64.0982 17.7141V26.7581H58.7942V8.46606H63.8602V13.5321L62.9082 12.0021C63.5655 10.7781 64.5062 9.83739 65.7302 9.18006C66.9542 8.52272 68.3482 8.19406 69.9122 8.19406ZM82.302 26.7581V8.46606H87.606V26.7581H82.302ZM84.954 5.91606C83.9793 5.91606 83.186 5.63272 82.574 5.06606C81.962 4.49939 81.656 3.79672 81.656 2.95806C81.656 2.11939 81.962 1.41672 82.574 0.850056C83.186 0.283388 83.9793 5.45979e-05 84.954 5.45979e-05C85.9287 5.45979e-05 86.722 0.272055 87.334 0.816056C87.946 1.33739 88.252 2.01739 88.252 2.85606C88.252 3.74006 87.946 4.47672 87.334 5.06606C86.7447 5.63272 85.9513 5.91606 84.954 5.91606ZM100.009 27.0301C97.8552 27.0301 96.1779 26.4861 94.9766 25.3981C93.7752 24.2874 93.1746 22.6441 93.1746 20.4681V4.42006H98.4786V20.4001C98.4786 21.1707 98.6826 21.7714 99.0906 22.2021C99.4986 22.6101 100.054 22.8141 100.757 22.8141C101.595 22.8141 102.309 22.5874 102.899 22.1341L104.327 25.8741C103.783 26.2594 103.125 26.5541 102.355 26.7581C101.607 26.9394 100.825 27.0301 100.009 27.0301ZM90.3526 12.9541V8.87406H103.035V12.9541H90.3526ZM115.022 27.0301C113.503 27.0301 112.143 26.7354 110.942 26.1461C109.763 25.5567 108.845 24.6614 108.188 23.4601C107.531 22.2361 107.202 20.6834 107.202 18.8021V8.46606H112.506V18.0201C112.506 19.5387 112.823 20.6607 113.458 21.3861C114.115 22.0887 115.033 22.4401 116.212 22.4401C117.028 22.4401 117.753 22.2701 118.388 21.9301C119.023 21.5674 119.521 21.0234 119.884 20.2981C120.247 19.5501 120.428 18.6207 120.428 17.5101V8.46606H125.732V26.7581H120.7V21.7261L121.618 23.1881C121.006 24.4574 120.099 25.4207 118.898 26.0781C117.719 26.7127 116.427 27.0301 115.022 27.0301ZM130.646 26.7581V8.46606H135.712V13.6341L134.998 12.1381C135.542 10.8461 136.414 9.87139 137.616 9.21406C138.817 8.53406 140.279 8.19406 142.002 8.19406V13.0901C141.775 13.0674 141.571 13.0561 141.39 13.0561C141.208 13.0334 141.016 13.0221 140.812 13.0221C139.361 13.0221 138.182 13.4414 137.276 14.2801C136.392 15.0961 135.95 16.3767 135.95 18.1221V26.7581H130.646ZM154.101 27.0301C152.015 27.0301 150.179 26.6221 148.593 25.8061C147.029 24.9901 145.816 23.8794 144.955 22.4741C144.093 21.0461 143.663 19.4254 143.663 17.6121C143.663 15.7761 144.082 14.1554 144.921 12.7501C145.782 11.3221 146.949 10.2114 148.423 9.41805C149.896 8.60206 151.562 8.19406 153.421 8.19406C155.211 8.19406 156.821 8.57939 158.249 9.35006C159.699 10.0981 160.844 11.1861 161.683 12.6141C162.521 14.0194 162.941 15.7081 162.941 17.6801C162.941 17.8841 162.929 18.1221 162.907 18.3941C162.884 18.6434 162.861 18.8814 162.839 19.1081H147.981V16.0141H160.051L158.011 16.9321C158.011 15.9801 157.818 15.1527 157.433 14.4501C157.047 13.7474 156.515 13.2034 155.835 12.8181C155.155 12.4101 154.361 12.2061 153.455 12.2061C152.548 12.2061 151.743 12.4101 151.041 12.8181C150.361 13.2034 149.828 13.7587 149.443 14.4841C149.057 15.1867 148.865 16.0254 148.865 17.0001V17.8161C148.865 18.8134 149.08 19.6974 149.511 20.4681C149.964 21.2161 150.587 21.7941 151.381 22.2021C152.197 22.5874 153.149 22.7801 154.237 22.7801C155.211 22.7801 156.061 22.6327 156.787 22.3381C157.535 22.0434 158.215 21.6014 158.827 21.0121L161.649 24.0721C160.81 25.0241 159.756 25.7607 158.487 26.2821C157.217 26.7807 155.755 27.0301 154.101 27.0301Z" fill="#054C73"/>
</svg>
